<svg xmlns="http://www.w3.org/2000/svg" xmlns:xlink="http://www.w3.org/1999/xlink" width="238" height="440" viewBox="0 0 238 440">
    <defs>
        <linearGradient id="b" x1="50%" x2="50%" y1=".87%" y2="30.841%">
            <stop offset="0%" stop-color="#B8EEFF"/>
            <stop offset="100%" stop-color="#E9F9FE"/>
        </linearGradient>
        <path id="a" d="M0 0h238v440H0z"/>
        <linearGradient id="c" x1="50%" x2="50%" y1="5.34%" y2="21.658%">
            <stop offset="0%" stop-color="#FFF"/>
            <stop offset="100%" stop-color="#FFF" stop-opacity="0"/>
        </linearGradient>
        <linearGradient id="e" x1="50%" x2="50%" y1="5.34%" y2="14.275%">
            <stop offset="0%" stop-color="#FFF"/>
            <stop offset="100%" stop-color="#FFF" stop-opacity="0"/>
        </linearGradient>
        <path id="f" d="M62.455 79H44.75C15.5 79 0 61.759 0 44.5c0-8.56 6.94-18 15.5-18h47V15c0-8.284 6.716-15 15-15 8.284 0 15 6.716 15 15v11.5h47c8.56 0 15.5 9.44 15.5 18 0 17.259-15.5 34.5-44.75 34.5H92.545l31.705 53.75L77.5 94.935 30.75 132.75 62.455 79z"/>
        <path id="h" d="M.05 0h29.9c-.967 1.583-1.45 3.5-1.45 5.75s.5 4.5 1.5 6.75H0C1 10.25 1.5 8 1.5 5.75S1.017 1.583.05 0z"/>
        <linearGradient id="j" x1="50%" x2="50%" y1="0%" y2="119.426%">
            <stop offset="0%" stop-color="#E8E8E8"/>
            <stop offset="100%" stop-color="#DAE1E0"/>
        </linearGradient>
    </defs>
    <g fill="none" fill-rule="evenodd">
        <mask id="d" fill="#fff">
            <use xlink:href="#a"/>
        </mask>
        <use fill="url(#b)" xlink:href="#a"/>
        <path fill="url(#c)" d="M24.794 46.438s18.647-13.916 40.469-7.952c21.821 5.964 16.664 4.504 32.93 3.976 16.268-.528 30.948 17.097 30.948 17.097L131 111l-104.744-7.157L24 49.221l.794-2.783z" mask="url(#d)" opacity=".55"/>
        <path fill="url(#e)" d="M98.135 200.475s26.68-19.869 57.903-11.354c31.221 8.515 23.842 6.431 47.116 5.677 23.275-.754 44.278 24.41 44.278 24.41l2.66 73.441-149.864-10.218L97 204.448l1.135-3.973z" mask="url(#d)" opacity=".6"/>
        <path fill="#83BB55" d="M52.67 336.658c3.613 2.2 6.52 2.2 9.662 0-3.142-2.2-6.049-2.2-9.662 0z" mask="url(#d)" transform="rotate(-133 57.5 336.658)"/>
        <path fill="#83BB55" d="M-2.33 411.658c3.613 2.2 6.52 2.2 9.662 0-3.142-2.2-6.049-2.2-9.662 0z" mask="url(#d)" transform="rotate(-133 2.5 411.658)"/>
        <path fill="#83BB55" d="M88.128 384.97c3.613 2.2 6.52 2.2 9.661 0-3.141-2.199-6.048-2.199-9.661 0z" mask="url(#d)" opacity=".6" transform="rotate(-58 92.959 384.97)"/>
        <path fill="#83BB55" d="M185.51 255.658c3.614 2.2 6.52 2.2 9.662 0-3.142-2.2-6.048-2.2-9.661 0z" mask="url(#d)" transform="scale(1 -1) rotate(47 778.314 0)"/>
        <path fill="#83BB55" d="M231.67 295.658c3.613 2.2 6.52 2.2 9.662 0-3.142-2.2-6.049-2.2-9.662 0z" mask="url(#d)" transform="scale(1 -1) rotate(78 601.608 0)"/>
        <path fill="#83BB55" d="M187.781 314.13c2.428 1.477 4.38 1.477 6.491 0-2.11-1.478-4.063-1.478-6.491 0z" mask="url(#d)" opacity=".5" transform="scale(-1 1) rotate(-31 0 1002.949)"/>
        <path fill="#83BB55" d="M148.931 408.966c2.428 1.477 4.38 1.477 6.491 0-2.11-1.478-4.063-1.478-6.491 0z" mask="url(#d)" opacity=".5" transform="scale(-1 1) rotate(-41 0 815.98)"/>
        <path fill="#83BB55" d="M127.931 297.966c2.428 1.477 4.38 1.477 6.491 0-2.11-1.478-4.063-1.478-6.491 0z" mask="url(#d)" opacity=".5" transform="scale(-1 1) rotate(-41 0 648.813)"/>
        <g mask="url(#d)">
            <g transform="rotate(-46 154.819 32.532)">
                <mask id="g" fill="#fff">
                    <use xlink:href="#f"/>
                </mask>
                <path stroke="#192044" stroke-width=".5" d="M62.017 79.25H44.75c-27.092 0-45-15.379-45-34.75 0-9.165 7.43-18.25 15.75-18.25h46.75V15c0-8.422 6.828-15.25 15.25-15.25S92.75 6.578 92.75 15v11.25h46.75c8.32 0 15.75 9.085 15.75 18.25 0 19.371-17.908 34.75-45 34.75H92.983l32.185 54.564L77.5 95.257l-47.668 38.557L62.017 79.25z"/>
                <g mask="url(#g)">
                    <g transform="translate(23 36.5)">
                        <path fill="#EC642C" d="M10.25 8.24c1.876-3.082 1.876-5.56 0-8.24-1.876 2.68-1.876 5.158 0 8.24zm0 3.819c1.876 3.082 1.876 5.56 0 8.24-1.876-2.68-1.876-5.158 0-8.24zm-1.421-3.23C7.976 5.323 6.223 3.57 3.002 3.002 3.571 6.223 5.323 7.976 8.83 8.83zm2.7 2.7c3.506.853 5.258 2.605 5.827 5.827-3.222-.569-4.974-2.321-5.827-5.827zm.142-2.7c3.506-.853 5.258-2.606 5.827-5.827-3.221.569-4.974 2.321-5.827 5.827zm-2.7 2.7c-.853 3.506-2.605 5.258-5.827 5.827.569-3.222 2.321-4.974 5.827-5.827zm3.289-1.279c3.082 1.876 5.56 1.876 8.24 0-2.68-1.876-5.158-1.876-8.24 0zm-3.819 0c-3.082 1.876-5.56 1.876-8.24 0 2.68-1.876 5.158-1.876 8.24 0z"/>
                        <circle cx="10.25" cy="10.049" r="1.407" fill="#FA0"/>
                    </g>
                </g>
                <circle cx="71.25" cy="13.25" r="3.25" fill="#FEFEFE" mask="url(#g)"/>
                <circle cx="71.25" cy="13.25" r="1.75" fill="#192044" mask="url(#g)"/>
                <circle cx="83.75" cy="13.25" r="3.25" fill="#FEFEFE" mask="url(#g)"/>
                <circle cx="83.75" cy="13.25" r="1.75" fill="#192044" mask="url(#g)"/>
                <path fill="#FFFAEC" d="M67.285 69.44l-4.606 9.565-1 .245v.19h-16.75c-21.493 0-35.562-9.31-41.513-21.094-.875-2.667-.37-4.636 1.513-5.906 2.824-1.905 5.5-.5 6.38.582 7.042 9.48 20.064 16.418 38.62 16.418h17.356z" mask="url(#g)"/>
                <path fill="#FFFAEC" d="M146.179 79.44h-16.75c-21.493 0-35.562-9.31-41.513-21.094-.875-2.667-.37-4.636 1.513-5.906 2.824-1.905 5.5-.5 6.38.582 7.042 9.48 20.064 16.418 38.62 16.418h17.75l-5 9.563-1 .247v.19z" mask="url(#g)" transform="matrix(-1 0 0 1 239.679 0)"/>
                <path fill="#192044" d="M10.6 51.75c1.5.667 1.917 1.083 1.25 1.25-1 .25-6.25 5.25-6.25 5.25 2.833-3 4.5-5.167 5-6.5zm2.75 3.5l2 2c-3.75 2-8.25 5.25-8.25 5.25 1.167-1.167 3.25-3.583 6.25-7.25zm3.557 2.41c2.694.879 3.877 1.347 3.548 1.405-.492.087-10.993 11.077-7.662 6.936 2.221-2.76 3.593-5.541 4.114-8.341zm3.654 3.866c1.967.24 2.595.575 1.885 1.002-1.067.642-5.363 8.267-5.363 8.267.695-2.015 1.855-5.104 3.478-9.269zm15.068 5.959c1.974-.174 2.658.022 2.052.588-.91.849-3.527 9.2-3.527 9.2 1.236-4.825 1.728-8.088 1.475-9.788zm17.216 1.428c1.895-.581 2.604-.531 2.129.148-.713 1.02-1.536 9.734-1.536 9.734.205-4.978.007-8.272-.593-9.882zm-28.163-6.729l2.564 1.195c-2.84 3.162-7.5 10.81-6.454 8.567.697-1.495 1.994-4.75 3.89-9.762zm3 1.5l2.564 1.195c-2.84 3.162-7.5 10.81-6.454 8.567.697-1.495 1.994-4.75 3.89-9.762zm12.475 3.593l2.8.393c-1.79 3.854-4.011 12.53-3.667 10.08.23-1.634.519-5.125.867-10.473zm4-.573l2.8.393c-1.79 3.854-4.011 12.53-3.667 10.08.23-1.634.519-5.125.867-10.473zm12.017 2.445l2.338.04c-1.081 3.344-2.03 10.687-1.993 8.641.023-1.364-.092-4.258-.345-8.681zm6.673.107c-1.463 4.183-2.37 6.933-2.724 8.25-.53 1.977.584-5.343.466-8.855l2.258.605zM30.192 65.74c2.818.3 4.072.512 3.763.636-.464.188-8.45 13.121-6.052 8.378 1.598-3.163 2.361-6.167 2.29-9.014zm17.34 2.474c2.75-.682 4.002-.911 3.754-.688-.371.334-3.453 15.22-2.822 9.942.42-3.519.11-6.603-.931-9.254z" mask="url(#g)"/>
                <path fill="#192044" d="M97.25 51.75c1.5.667 1.917 1.083 1.25 1.25-1 .25-6.25 5.25-6.25 5.25 2.833-3 4.5-5.167 5-6.5zm2.75 3.5l2 2c-3.75 2-8.25 5.25-8.25 5.25 1.167-1.167 3.25-3.583 6.25-7.25zm3.557 2.41c2.694.879 3.877 1.347 3.548 1.405-.492.087-10.993 11.077-7.662 6.936 2.221-2.76 3.593-5.541 4.114-8.341zm3.654 3.866c1.967.24 2.595.575 1.885 1.002-1.067.642-5.363 8.267-5.363 8.267.695-2.015 1.855-5.104 3.478-9.269zm15.068 5.959c1.974-.174 2.658.022 2.052.588-.91.849-3.527 9.2-3.527 9.2 1.236-4.825 1.728-8.088 1.475-9.788zm17.216 1.428c1.895-.581 2.604-.531 2.129.148-.713 1.02-1.536 9.734-1.536 9.734.205-4.978.007-8.272-.593-9.882zm-28.163-6.729l2.564 1.195c-2.84 3.162-7.5 10.81-6.454 8.567.697-1.495 1.994-4.75 3.89-9.762zm3 1.5l2.564 1.195c-2.84 3.162-7.5 10.81-6.454 8.567.697-1.495 1.994-4.75 3.89-9.762zm12.475 3.593l2.8.393c-1.79 3.854-4.011 12.53-3.667 10.08.23-1.634.519-5.125.867-10.473zm4-.573l2.8.393c-1.79 3.854-4.011 12.53-3.667 10.08.23-1.634.519-5.125.867-10.473zm12.017 2.445l2.338.04c-1.081 3.344-2.03 10.687-1.993 8.641.023-1.364-.092-4.258-.345-8.681zm6.673.107c-1.463 4.183-2.37 6.933-2.724 8.25-.53 1.977.584-5.343.466-8.855l2.258.605zm-32.655-3.516c2.818.3 4.072.512 3.763.636-.464.188-8.45 13.121-6.052 8.378 1.598-3.163 2.361-6.167 2.29-9.014zm17.34 2.474c2.75-.682 4.002-.911 3.754-.688-.371.334-3.453 15.22-2.822 9.942.42-3.519.11-6.603-.931-9.254z" mask="url(#g)" transform="matrix(-1 0 0 1 241.747 0)"/>
                <g fill="#EC642C" mask="url(#g)">
                    <path d="M138.907 35.087c-.486-2.352-1.61-3.559-3.74-4.012.303 2.156 1.428 3.363 3.74 4.012zM109.52 37.514c1.14-2.114 1.053-3.761-.287-5.477-1.154 1.846-1.067 3.494.287 5.477zM144.645 51.234c-2.337-.554-3.906-.044-5.216 1.694 2.082.637 3.651.127 5.216-1.694zM157.006 39.89c-2.337-.553-3.906-.043-5.217 1.695 2.083.637 3.652.127 5.217-1.694zM108.287 63.85c-1.692-1.71-3.296-2.11-5.333-1.329 1.432 1.646 3.036 2.046 5.333 1.33zM100.56 51.24c-1.692-1.711-3.296-2.111-5.333-1.33 1.431 1.646 3.035 2.046 5.332 1.33z"/>
                </g>
                <g fill="#EC642C" mask="url(#g)">
                    <path d="M16.093 35.087c.486-2.352 1.61-3.559 3.74-4.012-.303 2.156-1.428 3.363-3.74 4.012zM45.48 37.514c-1.14-2.114-1.053-3.761.287-5.477 1.154 1.846 1.067 3.494-.287 5.477zM10.855 49.234c2.337-.554 3.906-.044 5.216 1.694-2.082.637-3.651.127-5.216-1.694zM-2.006 39.89c2.337-.553 3.906-.043 5.217 1.695-2.083.637-3.652.127-5.217-1.694zM50.213 59.35c1.692-1.71 3.296-2.11 5.333-1.329-1.432 1.646-3.036 2.046-5.333 1.33z"/>
                </g>
                <path fill="#FFFAEC" d="M62.685 65.862c-2.75-9-6-14.5-5-20.75s8.75-24.25 12-26c2.065-1.111 4.659-.71 7.783 1.205 3.123-1.915 5.717-2.316 7.782-1.204 3.25 1.75 11 19.75 12 26s-2.25 11.75-5 20.75c-1.799 5.886-6.726 11.052-14.782 5.387-8.057 5.665-12.984.5-14.783-5.388z" mask="url(#g)"/>
                <rect width="5" height="5" x="74.932" y="16.432" fill="#FA0" mask="url(#g)" rx="1" transform="rotate(45 77.432 18.932)"/>
                <g mask="url(#g)">
                    <g transform="translate(62.5 66.5)">
                        <mask id="i" fill="#fff">
                            <use xlink:href="#h"/>
                        </mask>
                        <path stroke="#192044" stroke-width=".5" d="M.483.25c.845 1.548 1.267 3.382 1.267 5.5 0 2.168-.457 4.336-1.37 6.5h29.24c-.913-2.164-1.37-4.332-1.37-6.5 0-2.118.422-3.952 1.267-5.5H.483z"/>
                        <circle cx="1.75" cy="-.75" r="4.25" fill="#192044" mask="url(#i)"/>
                        <circle cx="8.25" cy="-.75" r="4.25" fill="#192044" mask="url(#i)"/>
                        <circle cx="14.75" cy="-.75" r="4.25" fill="#192044" mask="url(#i)"/>
                        <circle cx="21.25" cy="-.75" r="4.25" fill="#192044" mask="url(#i)"/>
                        <circle cx="26.75" cy="-.75" r="4.25" fill="#192044" mask="url(#i)"/>
                        <path fill="#192044" d="M29.063 8.533a4.23 4.23 0 0 1-2.363.717 4.233 4.233 0 0 1-2.75-1.01 4.233 4.233 0 0 1-2.75 1.01 4.24 4.24 0 0 1-3.25-1.511A4.24 4.24 0 0 1 14.7 9.25a4.24 4.24 0 0 1-3.25-1.511A4.24 4.24 0 0 1 8.2 9.25a4.24 4.24 0 0 1-3.25-1.511 4.24 4.24 0 0 1-3.908 1.46A9.366 9.366 0 0 0 0 6.75h29.9a9.158 9.158 0 0 0-.837 1.783z" mask="url(#i)"/>
                    </g>
                </g>
                <path fill="#FFFAEC" d="M92.411 14A8.752 8.752 0 0 0 77.5 9.126 8.752 8.752 0 0 0 62.589 14H62.5V-3.5h30V14h-.089z" mask="url(#g)"/>
                <path fill="#192044" d="M62.75 79h29.5l32 54.25L77.5 95.435 30.75 133.25z" mask="url(#g)"/>
                <path fill="#FFFAEC" d="M68.854 80c-2.257 4.05-6.032 13.003-5.465 10.728.371-1.49 1.286-5.065 2.744-10.728h2.72zm4.5 0c-2.257 4.05-6.032 13.003-5.465 10.728.371-1.49 1.286-5.065 2.744-10.728h2.72z" mask="url(#g)"/>
                <path fill="#FFFAEC" d="M87.172 80c-2.257 4.05-6.032 13.003-5.465 10.728.372-1.49 1.286-5.065 2.744-10.728h2.72zm4.5 0c-2.257 4.05-6.032 13.003-5.465 10.728.372-1.49 1.286-5.065 2.744-10.728h2.72z" mask="url(#g)" transform="matrix(-1 0 0 1 173.322 0)"/>
                <path fill="#192044" fill-rule="nonzero" d="M77.25 0h.5v95.25h-.5z" mask="url(#g)"/>
                <path fill="#192044" fill-rule="nonzero" d="M77.25-21.5h.5v95.25h-.5z" mask="url(#g)" transform="rotate(90 77.5 26.125)"/>
                <ellipse cx="49" cy="26.25" fill="#FFFAEC" mask="url(#g)" rx="13.5" ry="8.25"/>
                <ellipse cx="106" cy="26.25" fill="#FFFAEC" mask="url(#g)" rx="13.5" ry="8.25"/>
                <g mask="url(#g)">
                    <g transform="translate(111.5 36.5)">
                        <path fill="#EC642C" d="M10.25 8.24c1.876-3.082 1.876-5.56 0-8.24-1.876 2.68-1.876 5.158 0 8.24zm0 3.819c1.876 3.082 1.876 5.56 0 8.24-1.876-2.68-1.876-5.158 0-8.24zm-1.421-3.23C7.976 5.323 6.223 3.57 3.002 3.002 3.571 6.223 5.323 7.976 8.83 8.83zm2.7 2.7c3.506.853 5.258 2.605 5.827 5.827-3.222-.569-4.974-2.321-5.827-5.827zm.142-2.7c3.506-.853 5.258-2.606 5.827-5.827-3.221.569-4.974 2.321-5.827 5.827zm-2.7 2.7c-.853 3.506-2.605 5.258-5.827 5.827.569-3.222 2.321-4.974 5.827-5.827zm3.289-1.279c3.082 1.876 5.56 1.876 8.24 0-2.68-1.876-5.158-1.876-8.24 0zm-3.819 0c-3.082 1.876-5.56 1.876-8.24 0 2.68-1.876 5.158-1.876 8.24 0z"/>
                        <circle cx="10.25" cy="10.049" r="1.407" fill="#FA0"/>
                    </g>
                </g>
            </g>
        </g>
        <path stroke="url(#j)" stroke-width="1.3" d="M192 462c-54.072-151-85.906-276.833-95.5-377.5" mask="url(#d)"/>
        <g mask="url(#d)">
            <path fill="#83BB55" d="M216.58 400.752c-4.6-6.253-5.064-11.567-1.546-17.662 4.523 5.392 4.988 10.705 1.545 17.662z"/>
            <path fill="#5C3A4E" d="M241.717 421.347l-57.063-43.371 3.845.77 55.894 39.628z"/>
            <path fill="#55BB8A" d="M204.794 390.82c-6.91-4.042-12.41-3.946-18.283.32 6.019 4.058 11.518 3.962 18.283-.32z"/>
            <path fill="#83BB55" d="M187.91 379.329c-4.923-2.88-8.84-2.812-13.024.227 4.287 2.891 8.205 2.823 13.024-.227z"/>
            <path fill="#55BB8A" d="M229.516 409.631c-8.407-4.918-15.098-4.801-22.244.389 7.323 4.937 14.014 4.82 22.244-.389z"/>
            <g>
                <path fill="#5C3A4E" d="M261.635 449.323l-30.021-65.084 3.032 2.485 30.748 61.23z"/>
                <path fill="#55BB8A" d="M243.366 405.036c-4.203-6.814-9.105-9.311-16.293-8.302 3.409 6.409 8.31 8.906 16.293 8.302z"/>
                <path fill="#83BB55" d="M233.853 386.963c-2.994-4.854-6.486-6.633-11.607-5.914 2.429 4.565 5.92 6.344 11.607 5.914z"/>
                <path fill="#55BB8A" d="M246.363 433.25c-5.114-8.289-11.077-11.327-19.822-10.1 4.147 7.798 10.11 10.836 19.822 10.1z"/>
            </g>
        </g>
        <g mask="url(#d)">
            <path fill="#83BB55" d="M23.42 287.752c4.6-6.253 5.064-11.567 1.546-17.662-4.523 5.392-4.988 10.705-1.545 17.662z"/>
            <path fill="#5C3A4E" d="M-1.717 308.347l57.063-43.371-3.845.77-55.894 39.628z"/>
            <path fill="#55BB8A" d="M35.206 277.82c6.91-4.042 12.41-3.946 18.283.32-6.019 4.058-11.518 3.962-18.283-.32z"/>
            <path fill="#83BB55" d="M52.09 266.329c4.923-2.88 8.84-2.812 13.024.227-4.287 2.891-8.205 2.823-13.024-.227z"/>
            <path fill="#55BB8A" d="M10.484 296.631c8.407-4.918 15.098-4.801 22.244.389-7.323 4.937-14.014 4.82-22.244-.389z"/>
            <g>
                <path fill="#5C3A4E" d="M-15.2 340.715L14.82 275.63l-3.033 2.485-30.747 61.23z"/>
                <path fill="#55BB8A" d="M7.405 292.532c1.16-7.921-.99-12.984-7.145-16.832-1.508 7.1.641 12.164 7.145 16.832z"/>
                <path fill="#83BB55" d="M18.395 282.002c.826-5.644-.705-9.25-5.09-11.992-1.074 5.059.457 8.666 5.09 11.992z"/>
                <path fill="#55BB8A" d="M-6.363 320.25c5.114-8.289 11.077-11.327 19.822-10.1-4.147 7.798-10.11 10.836-19.822 10.1z"/>
            </g>
        </g>
    </g>
</svg>
