<svg xmlns="http://www.w3.org/2000/svg" xmlns:xlink="http://www.w3.org/1999/xlink" width="238" height="440" viewBox="0 0 238 440">
    <defs>
        <linearGradient id="b" x1="50%" x2="50%" y1="0%" y2="37.275%">
            <stop offset="0%" stop-color="#FCD3C2"/>
            <stop offset="100%" stop-color="#F5F5E5"/>
        </linearGradient>
        <path id="a" d="M0 0h238v440H0z"/>
        <linearGradient id="d" x1="50%" x2="50%" y1="0%" y2="100%">
            <stop offset="0%" stop-color="#FFF" stop-opacity=".1"/>
            <stop offset="100%" stop-color="#FFF" stop-opacity=".9"/>
        </linearGradient>
        <linearGradient id="e" x1="50%" x2="50%" y1="5.34%" y2="21.658%">
            <stop offset="0%" stop-color="#FFF"/>
            <stop offset="100%" stop-color="#FFF" stop-opacity="0"/>
        </linearGradient>
        <linearGradient id="f" x1="50%" x2="50%" y1="5.34%" y2="14.275%">
            <stop offset="0%" stop-color="#FFF"/>
            <stop offset="100%" stop-color="#FFF" stop-opacity="0"/>
        </linearGradient>
        <path id="g" d="M162.5 428c4.142 0 7.5-.89 7.5-3.375S166.642 419 162.5 419c-4.142 0-7.5 3.14-7.5 5.625s3.358 3.375 7.5 3.375z"/>
        <filter id="h" height="133.3%" y="-16.7%" filterUnits="objectBoundingBox">
            <feGaussianBlur in="SourceAlpha" result="shadowBlurInner1" stdDeviation=".5"/>
            <feOffset dy="-2" in="shadowBlurInner1" result="shadowOffsetInner1"/>
            <feComposite in="shadowOffsetInner1" in2="SourceAlpha" k2="-1" k3="1" operator="arithmetic" result="shadowInnerInner1"/>
            <feColorMatrix in="shadowInnerInner1" values="0 0 0 0 0 0 0 0 0 0 0 0 0 0 0 0 0 0 0.1 0"/>
        </filter>
        <path id="i" d="M10.5 14L18 40.5c.333 6.333-.5 16.333-2.5 30C13.5 84.167 8.333 93 0 97c15.333-4.667 21.333-4.667 18 0-3.333 4.667-1 3.167 7-4.5l3 6.5 3-6.5 8.5 6.5c0-4.333.5-6.5 1.5-6.5 1.333-1 7.333 1.167 18 6.5l-4.684-7.417A33 33 0 0 1 51.902 87C44.054 68.755 41.087 53.255 43 40.5c2-13.333 7-22.167 15-26.5L22 0 10.5 14z"/>
        <path id="k" d="M132.5 431c5.247 0 9.5-1.087 9.5-4.125 0-3.038-4.253-6.875-9.5-6.875s-9.5 3.837-9.5 6.875 4.253 4.125 9.5 4.125z"/>
        <filter id="l" width="115.8%" height="127.3%" x="-7.9%" y="-13.6%" filterUnits="objectBoundingBox">
            <feGaussianBlur in="SourceAlpha" result="shadowBlurInner1" stdDeviation=".5"/>
            <feOffset dy="-2" in="shadowBlurInner1" result="shadowOffsetInner1"/>
            <feComposite in="shadowOffsetInner1" in2="SourceAlpha" k2="-1" k3="1" operator="arithmetic" result="shadowInnerInner1"/>
            <feColorMatrix in="shadowInnerInner1" values="0 0 0 0 0 0 0 0 0 0 0 0 0 0 0 0 0 0 0.1 0"/>
        </filter>
        <path id="m" d="M86.5 429c5.247 0 9.5-1.087 9.5-4.125 0-3.038-4.253-6.875-9.5-6.875s-9.5 3.837-9.5 6.875S81.253 429 86.5 429z"/>
        <filter id="n" width="115.8%" height="127.3%" x="-7.9%" y="-13.6%" filterUnits="objectBoundingBox">
            <feGaussianBlur in="SourceAlpha" result="shadowBlurInner1" stdDeviation=".5"/>
            <feOffset dy="-2" in="shadowBlurInner1" result="shadowOffsetInner1"/>
            <feComposite in="shadowOffsetInner1" in2="SourceAlpha" k2="-1" k3="1" operator="arithmetic" result="shadowInnerInner1"/>
            <feColorMatrix in="shadowInnerInner1" values="0 0 0 0 0 0 0 0 0 0 0 0 0 0 0 0 0 0 0.1 0"/>
        </filter>
        <path id="o" d="M182.12 154.833a5 5 0 0 1-8.563-.536A4.977 4.977 0 0 1 171 155a4.989 4.989 0 0 1-1.775-.324A4.996 4.996 0 0 1 165 157a4.978 4.978 0 0 1-2.415-.62 7.003 7.003 0 0 1-13.227-.165A10.451 10.451 0 0 1 143.5 158c-5.799 0-10.5-4.701-10.5-10.5 0-1.234.213-2.42.604-3.52a4 4 0 0 1-3.06-5.995 6.984 6.984 0 0 1-4.814-2.377 3.999 3.999 0 0 1-5.214-1.64 3.982 3.982 0 0 1-2.926-.774A10.479 10.479 0 0 1 109.5 137a10.499 10.499 0 0 1-9.293-5.608 4 4 0 0 1-7.182-1.941c-.594.349-1.286.549-2.025.549-.739 0-1.431-.2-2.025-.55a4.002 4.002 0 0 1-3.496 3.522 7.502 7.502 0 0 1-4.801 11.936c.21.83.322 1.697.322 2.592 0 5.799-4.701 10.5-10.5 10.5a10.493 10.493 0 0 1-8.93-4.974A7.473 7.473 0 0 1 56.5 155a7.468 7.468 0 0 1-4.605-1.58 7.503 7.503 0 0 1-13.667-2.078A7.484 7.484 0 0 1 32.5 154a7.466 7.466 0 0 1-4.446-1.46 7.5 7.5 0 0 1-12.529-7.803 7.503 7.503 0 0 1-3.354-12.514 7.5 7.5 0 0 1-4.153-7.24 7.5 7.5 0 0 1-5.071-13.442 7.5 7.5 0 0 1 6.585-12.47l.361-3.536a7.503 7.503 0 0 1-4.694-8.76A9.998 9.998 0 0 1 0 78c0-5.523 4.477-10 10-10l.15.001a7.5 7.5 0 0 1 11.02-8.043l1.09-1.692a7.503 7.503 0 0 1 1.648-14.097A9.963 9.963 0 0 1 23 40c0-5.523 4.477-10 10-10a9.985 9.985 0 0 1 8.018 4.023 7.5 7.5 0 0 1 9.032-7.863 7.001 7.001 0 0 1 9.036-5.844c-.057-.43-.086-.87-.086-1.316 0-5.523 4.477-10 10-10 4.378 0 8.098 2.813 9.453 6.73A6.988 6.988 0 0 1 84 13c1.959 0 3.73.805 5 2.102V15c0-5.523 4.477-10 10-10a9.99 9.99 0 0 1 8.283 4.396C108.473 4.02 113.267 0 119 0c6.382 0 11.6 4.983 11.978 11.27A6.968 6.968 0 0 1 135 10a6.996 6.996 0 0 1 6 3.392 7.003 7.003 0 0 1 12.57 1.186A11.979 11.979 0 0 1 163 10c6.627 0 12 5.373 12 12 0 1.04-.132 2.048-.38 3.01a7 7 0 0 1 5.992 11.176 7.009 7.009 0 0 1 5.273 5.544 7.003 7.003 0 0 1 9.658 3.776A12 12 0 0 1 199 45c6.627 0 12 5.373 12 12 0 3.594-1.58 6.819-4.083 9.018A6.979 6.979 0 0 1 209 71c0 1.57-.517 3.019-1.39 4.186a7.003 7.003 0 0 1 2.75 12.29C215.352 88.93 219 93.54 219 99c0 4.368-2.334 8.19-5.822 10.29a7.003 7.003 0 0 1-3.184 11.422 6.967 6.967 0 0 1-1.188 4.2 7.003 7.003 0 0 1-3.297 11.926 5 5 0 0 1-4.55 7.163c.027.329.041.662.041.999 0 6.627-5.373 12-12 12-2.56 0-4.932-.801-6.88-2.167z"/>
    </defs>
    <g fill="none" fill-rule="evenodd">
        <mask id="c" fill="#fff">
            <use xlink:href="#a"/>
        </mask>
        <use fill="url(#b)" xlink:href="#a"/>
        <g fill="#333" mask="url(#c)" opacity=".8">
            <path d="M200 195.222a13.613 13.613 0 0 1 2.183-.174c4.223 0 7.84 1.912 9.346 4.626-.703.114-1.433.174-2.183.174-4.223 0-7.84-1.912-9.346-4.626z"/>
            <path d="M206.378 207.31c-2.644-1.451-4.433-4.23-4.433-7.42 0-4.69 3.868-8.492 8.64-8.492.952 0 1.867.151 2.724.43-4.676 1.327-8.095 5.565-8.095 10.587 0 1.759.42 3.42 1.164 4.895z"/>
        </g>
        <g fill="#333" mask="url(#c)" opacity=".4">
            <path d="M145 179.484c.402-.068.82-.103 1.248-.103 2.413 0 4.48 1.125 5.34 2.721-.401.067-.819.103-1.247.103-2.414 0-4.48-1.125-5.341-2.721z"/>
            <path d="M148.645 186.594a5.004 5.004 0 0 1-2.534-4.364c0-2.76 2.21-4.996 4.937-4.996a4.88 4.88 0 0 1 1.557.253c-2.672.78-4.625 3.273-4.625 6.228 0 1.034.239 2.012.665 2.88z"/>
        </g>
        <g fill="#333" mask="url(#c)" opacity=".4">
            <path d="M52 209.987a5.325 5.325 0 0 0-.936-.082c-1.81 0-3.36.9-4.005 2.177.301.054.614.082.935.082 1.81 0 3.36-.9 4.006-2.177z"/>
            <path d="M49.266 215.676c1.134-.684 1.9-1.991 1.9-3.492 0-2.208-1.657-3.997-3.702-3.997-.408 0-.8.071-1.168.203 2.004.624 3.47 2.618 3.47 4.982 0 .827-.18 1.61-.5 2.304z"/>
        </g>
        <g fill="#333" mask="url(#c)" opacity=".7">
            <path d="M37.168 230.896a9.772 9.772 0 0 0-1.061-1.16c-2.217-2.068-5.053-2.836-7.172-2.148.313.404.667.794 1.06 1.16 2.218 2.068 5.053 2.835 7.173 2.148z"/>
            <path d="M27.9 234.12c2.1.532 4.4-.051 5.96-1.726 2.297-2.462 2.128-6.352-.377-8.688a6.294 6.294 0 0 0-1.641-1.108c1.805 2.985 1.525 6.884-.934 9.521a7.767 7.767 0 0 1-3.007 2z"/>
        </g>
        <circle cx="119.5" cy="102.5" r="45.5" fill="url(#d)" mask="url(#c)"/>
        <path fill="url(#e)" d="M24.794 41.438s18.647-13.916 40.469-7.952c21.821 5.964 16.664 4.504 32.93 3.976 16.268-.528 30.948 17.097 30.948 17.097L131 106 26.256 98.843 24 44.221l.794-2.783z" mask="url(#c)" opacity=".5"/>
        <path fill="url(#f)" d="M140.135 104.475s26.68-19.869 57.903-11.354c31.221 8.515 23.842 6.431 47.116 5.677 23.275-.754 44.278 24.41 44.278 24.41l2.66 73.441-149.864-10.218L139 108.448l1.135-3.973z" mask="url(#c)" opacity=".4"/>
        <path fill="#009F3B" d="M129.145 362.127A8 8 0 1 1 144 358a8.003 8.003 0 0 1 7.754 6.025c4.823.327 8.793 3.762 9.923 8.318A8 8 0 0 1 164 372c1.16 0 2.263.247 3.258.691A7.994 7.994 0 0 1 174 369a7.97 7.97 0 0 1 3.342.73A10.998 10.998 0 0 1 187 364c3.72 0 7.01 1.847 9 4.674a7 7 0 1 1 0 12.653 10.987 10.987 0 0 1-9 4.673c-2.961 0-5.65-1.17-7.627-3.073A7.97 7.97 0 0 1 174 385a7.972 7.972 0 0 1-3.258-.691A7.994 7.994 0 0 1 164 388a7.996 7.996 0 0 1-6.856-3.875A10.949 10.949 0 0 1 151 386c-4.187 0-7.828-2.34-9.687-5.783A10.959 10.959 0 0 1 134 383c-6.075 0-11-4.925-11-11a11 11 0 0 1 6.145-9.873zM92.182 361A11.063 11.063 0 0 1 92 359c0-6.075 4.925-11 11-11s11 4.925 11 11c0 1.8-.433 3.5-1.2 5 .767 1.5 1.2 3.2 1.2 5 0 6.075-4.925 11-11 11-1.05 0-2.065-.147-3.027-.422A10.969 10.969 0 0 1 92 383a10.95 10.95 0 0 1-5.431-1.432 8 8 0 0 1-13.798-1.137c-.85.366-1.787.569-2.771.569a6.979 6.979 0 0 1-5-2.101A6.979 6.979 0 0 1 60 381c-1.53 0-2.944-.49-4.096-1.323A8.497 8.497 0 0 1 48.5 384a8.496 8.496 0 0 1-7.314-4.167 8.5 8.5 0 1 1 5.629-12.666A8.54 8.54 0 0 1 48.5 367c2.385 0 4.54.982 6.084 2.564A6.986 6.986 0 0 1 60 367c1.959 0 3.73.804 5 2.101A6.979 6.979 0 0 1 70 367c2.447 0 4.6 1.256 5.852 3.158A7.963 7.963 0 0 1 80 369c.471 0 .933.04 1.381.119C82.647 364.44 86.921 361 92 361l.182.001z" mask="url(#c)"/>
        <ellipse cx="119" cy="425" fill="#005620" mask="url(#c)" opacity=".12" rx="82" ry="8"/>
        <ellipse cx="163.5" cy="426" fill="#8E7E6D" mask="url(#c)" rx="7.5" ry="2"/>
        <g mask="url(#c)">
            <use fill="#B2A18F" xlink:href="#g"/>
            <use fill="#000" filter="url(#h)" xlink:href="#g"/>
        </g>
        <path fill="#5C3A4E" d="M112.956 384.647c-.311-4.879-8.439-12.25-24.382-22.112-15.943-9.862-14.777-11.014 3.5-3.455 7 2.327 11.5 4.439 13.5 6.335 2 1.895 4.46 8.306 7.382 19.232z" mask="url(#c)" transform="rotate(21 95.194 369.404)"/>
        <path fill="#5C3A4E" d="M149.927 383.5c-2.666-7.294-8.333-12.285-17-14.973-8.666-2.687-8.076-5.196 1.772-7.527 9.333 3.771 15 6.604 17 8.5s1.41 6.562-1.772 14z" mask="url(#c)" transform="matrix(-1 0 0 1 279.699 0)"/>
        <g mask="url(#c)">
            <g transform="translate(88 331)">
                <mask id="j" fill="#fff">
                    <use xlink:href="#i"/>
                </mask>
                <use fill="#5C3A4E" xlink:href="#i"/>
                <path stroke="#FEFEFE" stroke-width="2" d="M20.5 17.5c1.333 28.667 11.833 54.667 31.5 78M28 20c2.667 19.667 9.333 38.333 20 56M14.5 27.5c4.333 30 9.833 53.333 16.5 70" mask="url(#j)" opacity=".23"/>
            </g>
        </g>
        <ellipse cx="133.5" cy="428.5" fill="#8E7E6D" mask="url(#c)" rx="9.5" ry="2.5"/>
        <g mask="url(#c)">
            <use fill="#B2A18F" xlink:href="#k"/>
            <use fill="#000" filter="url(#l)" xlink:href="#k"/>
        </g>
        <ellipse cx="87.5" cy="426.5" fill="#8E7E6D" mask="url(#c)" rx="9.5" ry="2.5"/>
        <g mask="url(#c)">
            <use fill="#B2A18F" xlink:href="#m"/>
            <use fill="#000" filter="url(#n)" xlink:href="#m"/>
        </g>
        <g mask="url(#c)">
            <g transform="translate(12 221)">
                <mask id="p" fill="#fff">
                    <use xlink:href="#o"/>
                </mask>
                <use fill="#00BB63" xlink:href="#o"/>
                <path fill="#009F3B" d="M44.32 107.057c-1.553 4.192-5.588 7.181-10.32 7.181a10.999 10.999 0 0 1-9.728-5.86c-1.313.554-2.757.86-4.272.86-6.075 0-11-4.925-11-11 0-.384.02-.764.058-1.138a7.502 7.502 0 0 1-4.903-11.362 7.495 7.495 0 0 0 6.345 3.5 7.47 7.47 0 0 0 4.821-1.755c-.21.844-.321 1.727-.321 2.636C15 96.129 19.872 101 25.881 101c1.268 0 2.486-.217 3.617-.616C30.885 104.798 35.01 108 39.881 108c1.58 0 3.083-.337 4.438-.943z" mask="url(#p)"/>
                <path fill="#009F3B" d="M226.611 121.562c-1.552 4.193-5.586 7.181-10.319 7.181a10.999 10.999 0 0 1-9.728-5.86c-1.313.554-2.757.86-4.272.86-6.075 0-11-4.925-11-11 0-.384.02-.764.058-1.138a7.502 7.502 0 0 1-4.903-11.362 7.495 7.495 0 0 0 6.345 3.5 7.47 7.47 0 0 0 4.821-1.755c-.21.844-.321 1.727-.321 2.636 0 6.01 4.872 10.881 10.881 10.881 1.268 0 2.486-.217 3.617-.615 1.387 4.414 5.511 7.615 10.383 7.615 1.58 0 3.083-.337 4.438-.943z" mask="url(#p)" transform="rotate(-68 205.952 114.493)"/>
                <path fill="#000" d="M94.213 85.982c1.993.471 4.346.32 6.976-1.117 0 0 16.008 2.762 16.258-7.747 0 0 6.015 8.12-.617 14.059-4.421 3.959-9.47 4.76-15.148 2.406-6.197 6.354-11.874 6.876-17.03 1.566 0 0-7.121 1.488-9.68-5.191a14.123 14.123 0 0 0 7.548 2.172c4.851 0 9.134-2.434 11.693-6.148z" mask="url(#p)" opacity=".4" style="mix-blend-mode:overlay" transform="rotate(21 97.459 87.946)"/>
                <path fill="#000" d="M64.958 136.536c1.993.471 4.347.32 6.976-1.117 0 0 16.008 2.762 16.258-7.747 0 0 6.015 8.12-.617 14.059-4.42 3.959-9.47 4.76-15.147 2.406-6.198 6.353-11.875 6.876-17.031 1.566 0 0-7.12 1.488-9.68-5.191a14.123 14.123 0 0 0 7.548 2.172c4.851 0 9.134-2.435 11.693-6.148z" mask="url(#p)" opacity=".4" style="mix-blend-mode:overlay" transform="rotate(-2 68.204 138.5)"/>
            </g>
        </g>
        <path fill="#009F3B" d="M170.829 335.914c.4.048.808.072 1.222.072 5.611 0 10.16-4.549 10.16-10.16 0-1.588-.363-3.09-1.012-4.428a8.93 8.93 0 1 1-10.37 14.516z" mask="url(#c)" transform="rotate(36 178.06 329.616)"/>
        <path fill="#009F3B" d="M102.45 246.196c.4.048.808.073 1.221.073 5.612 0 10.161-4.549 10.161-10.16 0-1.588-.364-3.09-1.013-4.428a8.93 8.93 0 1 1-10.37 14.516z" mask="url(#c)" transform="rotate(73 109.68 239.899)"/>
        <path fill="#009F3B" d="M150.959 282.511a5.77 5.77 0 0 0 5.89-8.243 5.07 5.07 0 1 1-5.89 8.243z" mask="url(#c)" transform="rotate(36 155.065 278.935)"/>
    </g>
</svg>
