<svg xmlns="http://www.w3.org/2000/svg" xmlns:xlink="http://www.w3.org/1999/xlink" width="238" height="440" viewBox="0 0 238 440">
    <defs>
        <linearGradient id="b" x1="50%" x2="50%" y1="0%" y2="25.709%">
            <stop offset="0%" stop-color="#EAE7E6"/>
            <stop offset="100%" stop-color="#F7F2F1"/>
        </linearGradient>
        <path id="a" d="M0 0h238v440H0z"/>
        <linearGradient id="c" x1="50%" x2="50%" y1="0%" y2="97.557%">
            <stop offset="0%" stop-color="#D9D2D0"/>
            <stop offset="100%" stop-color="#DAD3D1" stop-opacity="0"/>
        </linearGradient>
        <linearGradient id="e" x1="39.609%" x2="39.609%" y1="-6.437%" y2="58.493%">
            <stop offset="0%" stop-color="#D9D2D0"/>
            <stop offset="100%" stop-color="#DAD3D1" stop-opacity="0"/>
        </linearGradient>
    </defs>
    <g fill="none" fill-rule="evenodd">
        <mask id="d" fill="#fff">
            <use xlink:href="#a"/>
        </mask>
        <use fill="url(#b)" xlink:href="#a"/>
        <path fill="url(#c)" d="M19 384.984s44-162.286 88 0c0 2.286-88 0-88 0z" mask="url(#d)" opacity=".3"/>
        <path fill="url(#c)" d="M95.5 346.944s45.75-168.74 91.5 0c0 2.376-91.5 0-91.5 0z" mask="url(#d)" opacity=".4"/>
        <path fill="url(#c)" d="M88 415.764s41.027-120.26 71 0c0 1.651-71 0-71 0z" mask="url(#d)" opacity=".6"/>
        <path fill="url(#c)" d="M166 375.111s51.5-146.5 103 0c0 3-103 0-103 0z" mask="url(#d)" opacity=".5"/>
        <path fill="url(#e)" d="M-7 444.111s45-146.5 90 0c0 3-90 0-90 0z" mask="url(#d)" opacity=".8"/>
        <g mask="url(#d)">
            <path fill="#FFF" d="M73 396h17v13H73z"/>
            <path fill="#5A5959" d="M83 399h4v4h-4zM74.451 388H88.55L93 396H70z"/>
        </g>
        <g mask="url(#d)">
            <path fill="#FFF" d="M154.565 378.19h8.87V385h-8.87z"/>
            <path fill="#5A5959" d="M159.783 379.762h2.087v2.095h-2.087zM155.322 374h7.356l2.322 4.19h-12z"/>
        </g>
        <g fill="#333" mask="url(#d)" opacity=".4">
            <path d="M52 149.987a5.325 5.325 0 0 0-.936-.082c-1.81 0-3.36.9-4.005 2.177.301.054.614.082.935.082 1.81 0 3.36-.9 4.006-2.177z"/>
            <path d="M49.266 155.676c1.134-.684 1.9-1.991 1.9-3.492 0-2.208-1.657-3.997-3.702-3.997-.408 0-.8.071-1.168.203 2.004.624 3.47 2.618 3.47 4.982 0 .827-.18 1.61-.5 2.304z"/>
        </g>
        <g fill="#333" mask="url(#d)" opacity=".4">
            <path d="M94 93.987a5.325 5.325 0 0 0-.936-.082c-1.81 0-3.36.9-4.005 2.177.301.054.614.082.935.082 1.81 0 3.36-.9 4.006-2.177z"/>
            <path d="M91.266 99.676c1.134-.684 1.9-1.991 1.9-3.492 0-2.208-1.657-3.997-3.702-3.997-.408 0-.8.071-1.168.203 2.004.624 3.47 2.618 3.47 4.982 0 .827-.18 1.61-.5 2.304z"/>
        </g>
        <g fill="#333" mask="url(#d)" opacity=".7">
            <path d="M37.168 170.896a9.772 9.772 0 0 0-1.061-1.16c-2.217-2.068-5.053-2.836-7.172-2.148.313.404.667.794 1.06 1.16 2.218 2.068 5.053 2.835 7.173 2.148z"/>
            <path d="M27.9 174.12c2.1.532 4.4-.051 5.96-1.726 2.297-2.462 2.128-6.352-.377-8.688a6.294 6.294 0 0 0-1.641-1.108c1.805 2.985 1.525 6.884-.934 9.521a7.767 7.767 0 0 1-3.007 2z"/>
        </g>
        <g fill="#333" mask="url(#d)" opacity=".8">
            <path d="M192.228 224.827c.692.17 1.388.4 2.078.692 3.887 1.65 6.47 4.824 6.795 7.91-.691-.169-1.387-.399-2.077-.692-3.888-1.65-6.47-4.823-6.796-7.91z"/>
            <path d="M193.376 238.447c-1.867-2.37-2.428-5.627-1.182-8.563 1.833-4.317 6.88-6.306 11.272-4.442.876.372 1.66.87 2.339 1.461-4.822-.606-9.625 1.96-11.588 6.583a10.82 10.82 0 0 0-.841 4.96z"/>
        </g>
        <g mask="url(#d)">
            <path stroke="#8BC34A" stroke-linecap="round" stroke-linejoin="round" stroke-width="1.1" d="M193.512-2.25c-28.536 79.933-65.122 132.367-109.756 157.3"/>
            <path stroke="#8BC34A" stroke-linecap="round" stroke-linejoin="round" stroke-width="1.1" d="M170.463-3.35c-23.048 75.533-52.865 136.95-89.45 184.25" opacity=".3"/>
            <path stroke="#8BC34A" stroke-linecap="round" stroke-linejoin="round" stroke-width="1.1" d="M171.012-1.15C141.744 72.917 108.817 119.3 72.232 138M205.037-1.7c-27.074 114.033-59.269 184.983-96.586 212.85"/>
            <path stroke="#8BC34A" stroke-linecap="round" stroke-linejoin="round" stroke-width="1.1" d="M223.695-2.25c-10.244 69.3-39.146 121.733-86.707 157.3" opacity=".2"/>
            <path stroke="#8BC34A" stroke-linecap="round" stroke-linejoin="round" stroke-width="1.1" d="M231.378-3.35c-5.854 67.833-40.244 116.417-103.17 145.75" opacity=".3"/>
            <path stroke="#8BC34A" stroke-linecap="round" stroke-linejoin="round" stroke-width="1.1" d="M244 22.5c-7.317 63.8-31.28 115.317-71.89 154.55"/>
            <path stroke="#8BC34A" stroke-linecap="round" stroke-linejoin="round" stroke-width="1.1" d="M239.61 11.5c-3.659 43.633-30 95.333-79.025 155.1" opacity=".3"/>
            <path stroke="#8BC34A" stroke-linecap="round" stroke-linejoin="round" stroke-width="1.1" d="M226.439-3.35c-10.976 66.367-44.817 125.217-101.524 176.55"/>
            <path stroke="#8BC34A" stroke-linecap="round" stroke-linejoin="round" stroke-width="1.1" d="M177.049-4.45c-9.512 70.4-36.037 133.833-79.573 190.3" opacity=".25"/>
            <path fill="#8BC34A" d="M163.338 33.096c.418-3.731-.672-6.068-3.622-7.768-.594 3.353.496 5.69 3.622 7.768zM189.68 24.296c.417-3.731-.672-6.068-3.622-7.768-.594 3.353.495 5.69 3.622 7.768zM200.656 37.496c.417-3.731-.672-6.068-3.623-7.768-.594 3.353.496 5.69 3.623 7.768zM184.192 92.496c.418-3.731-.672-6.068-3.622-7.768-.594 3.353.495 5.69 3.622 7.768zM164.436 143.096c.418-3.731-.672-6.068-3.622-7.768-.594 3.353.495 5.69 3.622 7.768zM177.607 127.696c.417-3.731-.672-6.068-3.622-7.768-.595 3.353.495 5.69 3.622 7.768zM229.192 105.696c.418-3.731-.672-6.068-3.622-7.768-.594 3.353.495 5.69 3.622 7.768zM205.046 149.696c.417-3.731-.672-6.068-3.622-7.768-.595 3.353.495 5.69 3.622 7.768zM134.802 194.796c.417-3.731-.672-6.068-3.622-7.768-.594 3.353.495 5.69 3.622 7.768zM225.9 26.496c.417-3.731-.673-6.068-3.623-7.768-.594 3.353.496 5.69 3.622 7.768zM199.558 91.396c.418-3.731-.672-6.068-3.622-7.768-.594 3.353.495 5.69 3.622 7.768zM165.534 75.996c.417-3.731-.672-6.068-3.622-7.768-.595 3.353.495 5.69 3.622 7.768zM138.22 115.287c1.43-3.472 1.026-6.018-1.34-8.465-1.496 3.059-1.093 5.605 1.34 8.465zM145.777 68.296c.418-3.731-.672-6.068-3.622-7.768-.594 3.353.496 5.69 3.622 7.768zM119.436 107.896c.418-3.731-.672-6.068-3.622-7.768-.594 3.353.495 5.69 3.622 7.768zM64.897 140.288c3.637.932 6.102.179 8.196-2.506-3.237-1.055-5.703-.301-8.196 2.506zM142.956 49.049c1.968-3.197 4.265-4.368 7.636-3.89-1.595 3.007-3.892 4.177-7.636 3.89zM166.737 48.602c1.969-3.197 4.266-4.368 7.637-3.891-1.596 3.008-3.893 4.178-7.637 3.89zM182.103 60.702c1.968-3.197 4.266-4.368 7.637-3.891-1.596 3.008-3.893 4.178-7.637 3.89zM224.908 82.702c1.968-3.197 4.265-4.368 7.637-3.891-1.596 3.008-3.893 4.178-7.637 3.89zM208.445 122.302c1.968-3.197 4.265-4.368 7.636-3.891-1.596 3.008-3.893 4.178-7.636 3.89zM182.103 161.902c1.968-3.197 4.266-4.368 7.637-3.891-1.596 3.008-3.893 4.178-7.637 3.89zM165.64 180.602c1.968-3.197 4.265-4.368 7.636-3.891-1.595 3.008-3.893 4.178-7.636 3.89zM175.518 109.102c1.968-3.197 4.265-4.368 7.636-3.891-1.595 3.008-3.892 4.178-7.636 3.89zM204.055 55.202c1.968-3.197 4.265-4.368 7.636-3.891-1.596 3.008-3.893 4.178-7.636 3.89zM143.689 90.402c1.968-3.197 4.265-4.368 7.636-3.891-1.596 3.008-3.893 4.178-7.636 3.89zM164.542 112.402c1.969-3.197 4.266-4.368 7.637-3.891-1.596 3.008-3.893 4.178-7.637 3.89zM142.591 152.002c1.968-3.197 4.265-4.368 7.636-3.891-1.595 3.008-3.892 4.178-7.636 3.89zM118.445 176.202c1.968-3.197 4.265-4.368 7.636-3.891-1.596 3.008-3.893 4.178-7.636 3.89zM140.396 165.202c1.968-3.197 4.265-4.368 7.636-3.891-1.595 3.008-3.892 4.178-7.636 3.89zM101.773 213.122c2.343-2.934 4.766-3.815 8.053-2.931-1.95 2.79-4.373 3.672-8.053 2.931zM113.612 125.933c2.86-2.433 5.406-2.836 8.465-1.34-2.447 2.367-4.994 2.77-8.465 1.34zM76.302 156.19c2.86-2.432 5.406-2.835 8.465-1.34-2.447 2.367-4.993 2.77-8.465 1.34zM120.87 84.562c2.59-2.719 5.08-3.386 8.278-2.218-2.186 2.61-4.677 3.277-8.279 2.218zM95.773 114.368c3.023-2.228 5.591-2.452 8.538-.747-2.606 2.19-5.174 2.415-8.538.747z"/>
        </g>
    </g>
</svg>
