<svg xmlns="http://www.w3.org/2000/svg" xmlns:xlink="http://www.w3.org/1999/xlink" width="238" height="440" viewBox="0 0 238 440">
    <defs>
        <linearGradient id="b" x1="50%" x2="50%" y1="18.429%" y2="0%">
            <stop offset="0%" stop-color="#FFE3B8"/>
            <stop offset="100%" stop-color="#FFD0A4"/>
        </linearGradient>
        <path id="a" d="M0 0h238v440H0z"/>
        <linearGradient id="c" x1="50%" x2="50%" y1="5.34%" y2="14.551%">
            <stop offset="0%" stop-color="#FDDDAD"/>
            <stop offset="100%" stop-color="#FFE3B8"/>
        </linearGradient>
        <linearGradient id="e" x1="50%" x2="50%" y1="5.34%" y2="14.551%">
            <stop offset="0%" stop-color="#FFDCB1"/>
            <stop offset="100%" stop-color="#FFE3B8"/>
        </linearGradient>
        <linearGradient id="f" x1="50%" x2="50%" y1="0%" y2="100%">
            <stop offset="0%" stop-color="#FFF" stop-opacity=".1"/>
            <stop offset="100%" stop-color="#FFF" stop-opacity=".9"/>
        </linearGradient>
        <linearGradient id="g" x1="50%" x2="50%" y1="0%" y2="100%">
            <stop offset="0%" stop-color="#FBD449"/>
            <stop offset="100%" stop-color="#F97022"/>
        </linearGradient>
        <linearGradient id="i" x1="50%" x2="50%" y1="0%" y2="100%">
            <stop offset="0%" stop-color="#FFF"/>
            <stop offset="100%" stop-color="#FD9072"/>
        </linearGradient>
        <path id="h" d="M-4 282.811s75-5.365 144 11.498 120 22.228 120 22.228V440H-11l7-157.189z"/>
    </defs>
    <g fill="none" fill-rule="evenodd">
        <mask id="d" fill="#fff">
            <use xlink:href="#a"/>
        </mask>
        <use fill="url(#b)" xlink:href="#a"/>
        <path fill="url(#c)" d="M108.135 268.738s26.68-19.869 57.903-11.354c31.221 8.515 23.842 6.431 47.116 5.677 23.275-.754 44.278 24.41 44.278 24.41l.568 95.368-149.865-10.218-1.135-99.91 1.135-3.973z" mask="url(#d)"/>
        <path fill="url(#e)" d="M104.057 254.593s24.533-18.27 53.242-10.44c28.71 7.83 21.924 5.913 43.325 5.22 21.402-.693 40.715 22.446 40.715 22.446l.522 87.693-137.804-9.396-1.044-91.87 1.044-3.653z" mask="url(#d)" opacity=".6" transform="rotate(-1 172.437 300.857)"/>
        <path fill="url(#e)" d="M-15 289s47-35 102-20 42 11.328 83 10c41-1.328 78 43 78 43l1 168-264-18-2-176 2-7z" mask="url(#d)"/>
        <circle cx="119.5" cy="102.5" r="45.5" fill="url(#f)" mask="url(#d)"/>
        <g mask="url(#d)">
            <use fill="url(#g)" xlink:href="#h"/>
            <use fill="url(#i)" fill-opacity=".1" xlink:href="#h"/>
        </g>
        <path fill="#FF6813" d="M200.624 498.848c-1.19-1.187-2.165-3.516-2.175-5.2 0 0-.734-94.949 3.029-150.949 3.01-12 3.009 156.966 3.009 156.966 0 1.676-.966 2.07-2.155.885l-1.708-1.702z" mask="url(#d)" opacity=".4" transform="scale(1 -1) rotate(29 1831.881 0)"/>
        <g mask="url(#d)">
            <path fill="#FFF" d="M182.152 273.65s1.238-15.031 5.695-23.96c0 0-3.673 3.546-7.007 24.748l1.312-.788z"/>
            <path fill="#EEC73A" d="M185.6 271.085a6.7 6.7 0 0 1-4.902-4.573 6.7 6.7 0 0 1 1.507-6.532 6.7 6.7 0 0 1 4.903 4.573 6.7 6.7 0 0 1-1.508 6.532z"/>
            <path fill="#F06856" d="M192.314 264.479a4.01 4.01 0 0 1-2.935-2.738 4.01 4.01 0 0 1 .902-3.91 4.01 4.01 0 0 1 2.935 2.737 4.01 4.01 0 0 1-.902 3.91zM187.478 250.182a4.01 4.01 0 0 1-1.503-3.72 4.01 4.01 0 0 1 2.47-3.163 4.01 4.01 0 0 1 1.503 3.72 4.01 4.01 0 0 1-2.47 3.163z"/>
            <path fill="#EEA93A" d="M184.697 257.161a4.01 4.01 0 0 1-3.403-2.127 4.01 4.01 0 0 1 .14-4.01 4.01 4.01 0 0 1 3.402 2.127 4.01 4.01 0 0 1-.14 4.01z"/>
            <path fill="#F06856" d="M204.5 256.825a4.01 4.01 0 0 1 3.607-1.759 4.01 4.01 0 0 1 3.328 2.244 4.01 4.01 0 0 1-3.607 1.759 4.01 4.01 0 0 1-3.328-2.244z"/>
            <path fill="#FFF" d="M165.094 359.107c-1.168-1.164-2.113-3.444-2.112-5.096 0 0-.002-113.011 2.965-170.011.02-10 3.005 176.016 3.005 176.016.027 1.648-.893 2.046-2.066.877l-1.792-1.786z"/>
            <path fill="#FFF" d="M164 307s-41-32-55-54c0 0 12 22 55 58v-4zM167 285s32-23 46-45c0 0-3 13-46 49v-4zM165.1 266.673s-22.244-27.184-29.222-49.354c0 0-.416 11.884 28.3 52.797l.922-3.443zM165.718 243.45S184.4 220.62 190.26 202c0 0 .35 9.98-23.767 44.342l-.775-2.893z"/>
            <path fill="#FFF" d="M132.622 281.968s-1.119-17.28-6.057-27.619c0 0 4.146 4.145 7.548 28.55l-1.49-.93zM148.768 295.619S143 266 138.711 256c0 0 7.289 16 11.548 40.55l-1.49-.931zM155.343 302.322s-20.79-3.93-32.594-11.459c0 0 4.41 5.645 33.502 13.406l-.908-1.947zM177.278 278.556s23.465-6.371 34.715-14.705c0 0-7.005 6.939-35.485 16.71l.77-2.005zM181.639 218.919s14.797-5.737 21.531-11.914c0 0-4.074 4.982-21.894 13.268l.363-1.354zM170.488 238.79s21.029-9.008 30.42-18.246c0 0-5.619 7.382-30.875 20.215l.455-1.968zM150.763 248.245s-12.83-7.927-18.763-15.952c0 0 1.492 4.883 18.87 17.479l-.107-1.527zM198.421 258.885s14.013-5.579 21.248-12.452c0 0-2.317 4.55-21.618 13.937-.051 0 .37-1.485.37-1.485z"/>
            <path fill="#F06856" d="M219.068 247.098a4.01 4.01 0 0 1 1.822-3.576 4.01 4.01 0 0 1 4.008-.21 4.01 4.01 0 0 1-1.822 3.575 4.01 4.01 0 0 1-4.008.21zM211.093 264.468a4.01 4.01 0 0 1 1.822-3.575 4.01 4.01 0 0 1 4.007-.21 4.01 4.01 0 0 1-1.822 3.575 4.01 4.01 0 0 1-4.007.21z"/>
            <path fill="#EEC73A" d="M202.975 269.174a4.01 4.01 0 0 1 .42-3.991 4.01 4.01 0 0 1 3.666-1.633 4.01 4.01 0 0 1-.42 3.991 4.01 4.01 0 0 1-3.666 1.633z"/>
            <path fill="#EEA93A" d="M197.625 271.941a4.01 4.01 0 0 1 3.925-.834 4.01 4.01 0 0 1 2.686 2.982 4.01 4.01 0 0 1-3.926.834 4.01 4.01 0 0 1-2.685-2.982z"/>
            <path fill="#F06856" d="M201.446 208.468a4.01 4.01 0 0 1 1.822-3.575 4.01 4.01 0 0 1 4.007-.21 4.01 4.01 0 0 1-1.822 3.575 4.01 4.01 0 0 1-4.007.21zM200.093 221.468a4.01 4.01 0 0 1 1.822-3.575 4.01 4.01 0 0 1 4.007-.21 4.01 4.01 0 0 1-1.822 3.575 4.01 4.01 0 0 1-4.007.21z"/>
            <path fill="#EEA93A" d="M212.928 251.921a4.01 4.01 0 0 1 3.607-1.758 4.01 4.01 0 0 1 3.327 2.243 4.01 4.01 0 0 1-3.607 1.76 4.01 4.01 0 0 1-3.327-2.245z"/>
            <path fill="#EEC73A" d="M189.174 229.7a4.01 4.01 0 0 1 3.747-1.438 4.01 4.01 0 0 1 3.119 2.525 4.01 4.01 0 0 1-3.747 1.438 4.01 4.01 0 0 1-3.119-2.525z"/>
            <path fill="#EEA93A" d="M212.903 240.339a6.7 6.7 0 0 1-3.352-5.806 6.7 6.7 0 0 1 3.352-5.807 6.7 6.7 0 0 1 3.351 5.807 6.7 6.7 0 0 1-3.351 5.806z"/>
            <path fill="#EEC73A" d="M152.017 250.248a4.01 4.01 0 0 1-3.544 1.883 4.01 4.01 0 0 1-3.403-2.126 4.01 4.01 0 0 1 3.543-1.884 4.01 4.01 0 0 1 3.404 2.127z"/>
            <path fill="#EEA93A" d="M139.017 240.248a4.01 4.01 0 0 1-3.544 1.883 4.01 4.01 0 0 1-3.403-2.126 4.01 4.01 0 0 1 3.543-1.884 4.01 4.01 0 0 1 3.404 2.127z"/>
            <path fill="#537746" d="M141.002 236.3a4.01 4.01 0 0 0-.97 3.894 4.01 4.01 0 0 0 2.886 2.788 4.01 4.01 0 0 0 .97-3.894 4.01 4.01 0 0 0-2.886-2.788z"/>
            <path fill="#EEC73A" d="M126.788 254.77a4.01 4.01 0 0 1-3.074-2.58 4.01 4.01 0 0 1 .696-3.952 4.01 4.01 0 0 1 3.074 2.58 4.01 4.01 0 0 1-.696 3.952z"/>
            <path fill="#F18936" d="M139.643 258.42a4.01 4.01 0 0 1-1.372-3.77 4.01 4.01 0 0 1 2.58-3.075 4.01 4.01 0 0 1 1.372 3.771 4.01 4.01 0 0 1-2.58 3.074z"/>
            <path fill="#EEC73A" d="M113.818 261.148a4.01 4.01 0 0 1-.35-3.998 4.01 4.01 0 0 1 3.288-2.302 4.01 4.01 0 0 1 .35 3.998 4.01 4.01 0 0 1-3.288 2.302z"/>
            <path fill="#F06856" d="M131.818 273.148a4.01 4.01 0 0 1-.35-3.998 4.01 4.01 0 0 1 3.288-2.302 4.01 4.01 0 0 1 .35 3.998 4.01 4.01 0 0 1-3.288 2.302zM130.912 302.115a4.303 4.303 0 0 1 2.153-3.728 4.303 4.303 0 0 1 4.305 0 4.303 4.303 0 0 1-2.153 3.728 4.303 4.303 0 0 1-4.305 0z"/>
            <path fill="#537746" d="M141.818 266.148a4.01 4.01 0 0 1-.35-3.998 4.01 4.01 0 0 1 3.288-2.302 4.01 4.01 0 0 1 .35 3.998 4.01 4.01 0 0 1-3.288 2.302zM131.456 295.675a4.01 4.01 0 0 1-1.945-3.51 4.01 4.01 0 0 1 2.066-3.44 4.01 4.01 0 0 1 1.945 3.51 4.01 4.01 0 0 1-2.066 3.44z"/>
            <path fill="#EEA93A" d="M144.7 272.903a5.254 5.254 0 0 0-2.63-4.553 5.254 5.254 0 0 0-5.256 0 5.254 5.254 0 0 0 2.629 4.553 5.254 5.254 0 0 0 5.257 0z"/>
            <path fill="#F18936" d="M146.736 284.75a5.078 5.078 0 0 1 2.54-4.399 5.078 5.078 0 0 1 5.081 0 5.078 5.078 0 0 1-2.54 4.4 5.078 5.078 0 0 1-5.08 0zM124.635 284.635a5.105 5.105 0 0 1 2.554-4.423 5.105 5.105 0 0 1 5.108 0 5.105 5.105 0 0 1-2.555 4.422 5.105 5.105 0 0 1-5.107.001z"/>
            <path fill="#F06856" d="M146.023 280.213a4.01 4.01 0 0 0-2.007-3.475 4.01 4.01 0 0 0-4.013 0 4.01 4.01 0 0 0 2.007 3.475 4.01 4.01 0 0 0 4.013 0zM135.992 218.16a6.7 6.7 0 0 1-3.845-5.492 6.7 6.7 0 0 1 2.832-6.076 6.7 6.7 0 0 1 3.845 5.492 6.7 6.7 0 0 1-2.832 6.077zM132.91 233.508a4.55 4.55 0 0 1-4.552 0 4.55 4.55 0 0 1-2.276-3.942 4.55 4.55 0 0 1 4.552 0 4.55 4.55 0 0 1 2.276 3.942z"/>
            <path fill="#EEA93A" d="M141.453 231.197a6.7 6.7 0 0 1-1.048-6.622 6.7 6.7 0 0 1 5.21-4.22 6.7 6.7 0 0 1 1.048 6.622 6.7 6.7 0 0 1-5.21 4.22zM166.37 205.995a6.7 6.7 0 0 1 1.165-6.602 6.7 6.7 0 0 1 6.3-2.294 6.7 6.7 0 0 1-1.165 6.602 6.7 6.7 0 0 1-6.3 2.294z"/>
            <path fill="#EEC73A" d="M165.032 215.05a6.7 6.7 0 0 0-1.165-6.602 6.7 6.7 0 0 0-6.3-2.294 6.7 6.7 0 0 0 1.165 6.603 6.7 6.7 0 0 0 6.3 2.293z"/>
            <path fill="#70AE5A" d="M177.284 229.674a5.135 5.135 0 0 1 2.57-4.45 5.135 5.135 0 0 1 5.138 0 5.135 5.135 0 0 1-2.57 4.45 5.135 5.135 0 0 1-5.138 0z"/>
            <path fill="#F06856" d="M174.09 234.151a5.135 5.135 0 0 0 .446-5.118 5.135 5.135 0 0 0-4.208-2.947 5.135 5.135 0 0 0-.447 5.118 5.135 5.135 0 0 0 4.208 2.947z"/>
            <path fill="#EEC73A" d="M190.129 203.042a6.7 6.7 0 0 1-1.048-6.621 6.7 6.7 0 0 1 5.21-4.22 6.7 6.7 0 0 1 1.048 6.622 6.7 6.7 0 0 1-5.21 4.22zM185.548 214.391a6.7 6.7 0 0 1 4.487-4.981 6.7 6.7 0 0 1 6.558 1.393 6.7 6.7 0 0 1-4.487 4.982 6.7 6.7 0 0 1-6.558-1.394z"/>
            <path fill="#F06856" d="M181.649 220.235a6.7 6.7 0 0 1-4.486-4.983 6.7 6.7 0 0 1 2.071-6.376 6.7 6.7 0 0 1 4.486 4.982 6.7 6.7 0 0 1-2.071 6.377zM165.988 192.985a6.7 6.7 0 0 1-4.74-4.741 6.7 6.7 0 0 1 1.735-6.476 6.7 6.7 0 0 1 4.74 4.74 6.7 6.7 0 0 1-1.735 6.477zM182.156 274.496a6.429 6.429 0 0 1 5.333-3.596 6.429 6.429 0 0 1 5.782 2.819 6.429 6.429 0 0 1-5.334 3.596 6.429 6.429 0 0 1-5.781-2.819z"/>
            <path fill="#70AE5A" d="M199.344 257.441a5.968 5.968 0 0 1-3.164-5.064 5.968 5.968 0 0 1 2.803-5.273 5.968 5.968 0 0 1 3.164 5.064 5.968 5.968 0 0 1-2.803 5.273z"/>
            <path fill="#F18936" d="M122.436 270.343a5.965 5.965 0 0 1-5.27 2.801 5.965 5.965 0 0 1-5.062-3.162 5.965 5.965 0 0 1 5.27-2.802 5.965 5.965 0 0 1 5.062 3.163z"/>
            <path fill="#70AE5A" d="M118.254 265.368a3.102 3.102 0 0 1-5.192-1.391 3.102 3.102 0 0 1 5.192 1.391z"/>
            <path fill="#F18936" d="M123.436 291.343a5.965 5.965 0 0 1-5.27 2.801 5.965 5.965 0 0 1-5.062-3.162 5.965 5.965 0 0 1 5.27-2.802 5.965 5.965 0 0 1 5.062 3.163z"/>
            <path fill="#F06856" d="M109.436 253.343a5.965 5.965 0 0 1-5.27 2.801 5.965 5.965 0 0 1-5.062-3.162 5.965 5.965 0 0 1 5.27-2.802 5.965 5.965 0 0 1 5.062 3.163z"/>
            <path fill="#70AE5A" d="M127.196 275.805a5.965 5.965 0 0 1-3.915-4.505 5.965 5.965 0 0 1 1.942-5.644 5.965 5.965 0 0 1 3.916 4.505 5.965 5.965 0 0 1-1.943 5.644z"/>
        </g>
    </g>
</svg>
