<svg xmlns="http://www.w3.org/2000/svg" xmlns:xlink="http://www.w3.org/1999/xlink" width="238" height="440" viewBox="0 0 238 440">
    <defs>
        <linearGradient id="b" x1="50%" x2="50%" y1="27.702%" y2="0%">
            <stop offset="0%" stop-color="#4FC3F7"/>
            <stop offset="100%" stop-color="#03A9F4"/>
        </linearGradient>
        <path id="a" d="M0 0h238v440H0z"/>
        <linearGradient id="c" x1="50%" x2="50%" y1="100%" y2="0%">
            <stop offset="0%" stop-color="#FFF"/>
            <stop offset="100%" stop-color="#FFF" stop-opacity=".6"/>
        </linearGradient>
        <linearGradient id="e" x1="12.873%" x2="92.453%" y1="0%" y2="96.881%">
            <stop offset="0%" stop-color="#B3E5FC"/>
            <stop offset="100%" stop-color="#E1F5FE" stop-opacity="0"/>
        </linearGradient>
        <linearGradient id="f" x1="50%" x2="50%" y1="0%" y2="100%">
            <stop offset="0%" stop-color="#FFF" stop-opacity=".1"/>
            <stop offset="100%" stop-color="#FFF" stop-opacity=".9"/>
        </linearGradient>
        <linearGradient id="g" x1="50%" x2="50%" y1="5.34%" y2="14.67%">
            <stop offset="0%" stop-color="#45C0F7"/>
            <stop offset="100%" stop-color="#4FC3F7" stop-opacity="0"/>
        </linearGradient>
        <path id="h" d="M56.889 39L74 67H62.477L81.5 98H.5l19.023-31H8l17.111-28H17L41 0l24 39h-8.111z"/>
        <linearGradient id="i" x1="50%" x2="50%" y1="0%" y2="100%">
            <stop offset="0%" stop-color="#0277BD"/>
            <stop offset="100%" stop-color="#0277BD" stop-opacity="0"/>
        </linearGradient>
        <path id="k" d="M22.894 15.6l6.886 11.2h-4.637L32.8 39.2H.2l7.656-12.4H3.22l6.886-11.2H6.84L16.5 0l9.659 15.6h-3.265z"/>
        <path id="m" d="M22.894 15.6l6.886 11.2h-4.637L32.8 39.2H.2l7.656-12.4H3.22l6.886-11.2H6.84L16.5 0l9.659 15.6h-3.265z"/>
    </defs>
    <g fill="none" fill-rule="evenodd">
        <mask id="d" fill="#fff">
            <use xlink:href="#a"/>
        </mask>
        <use fill="url(#b)" xlink:href="#a"/>
        <path fill="url(#c)" d="M-3 193.811S64 247.137 133 264c69 16.863 128 54 128 54v123H-10l7-247.189z" mask="url(#d)" transform="matrix(-1 0 0 1 251 0)"/>
        <path fill="url(#e)" d="M180 330h10l24 118-6 1z" mask="url(#d)" opacity=".6"/>
        <path fill="url(#e)" d="M117.5 272h4.118l9.882 47.597-2.47.403z" mask="url(#d)"/>
        <path fill="url(#e)" d="M38.5 373h4.118l9.882 47.597-2.47.403z" mask="url(#d)" opacity=".6"/>
        <circle cx="119.5" cy="102.5" r="45.5" fill="url(#f)" opacity=".8"/>
        <path fill="url(#g)" d="M49.355 119.55s26.68-19.869 57.902-11.354 23.842 6.43 47.117 5.677c23.274-.754 44.278 24.41 44.278 24.41l2.66 73.441-149.865-10.218-3.228-77.983 1.136-3.974z" opacity=".3"/>
        <g transform="translate(144 201)">
            <path fill="#0D47A1" d="M45 106l7.179-3.19c1.006-.448 1.217-.138.483.676L45 112v-6z"/>
            <path fill="#01579B" d="M36 74h10v56H36z"/>
            <mask id="j" fill="#fff">
                <use xlink:href="#h"/>
            </mask>
            <use fill="#03A9F4" xlink:href="#h"/>
            <path fill="url(#i)" d="M11 67h57v12H10.965zM11 39h57v12H10.965z" mask="url(#j)" opacity=".3"/>
            <path fill="#E1F5FE" d="M18.956 29.737l27.153-5.657L71 32v-43.053H7.548z" mask="url(#j)"/>
            <path fill="#0288D1" d="M41 0l22 107 42 1-2-109-40-10z" mask="url(#j)"/>
            <path fill="#81D4FA" d="M41 0l5 24 19 7-4-20L46-6z" mask="url(#j)"/>
        </g>
        <g transform="translate(103 220)">
            <path fill="#0D47A1" d="M18.11 42.4l2.889-1.276c.405-.179.495-.062.198.266L18.11 44.8v-2.4z"/>
            <path fill="#01579B" d="M14.488 29.6h4.024V52h-4.024z"/>
            <mask id="l" fill="#fff">
                <use xlink:href="#k"/>
            </mask>
            <use fill="#03A9F4" xlink:href="#k"/>
            <path fill="url(#i)" d="M4.427 26.8h22.939v4.8H4.413zM4.427 15.6h22.939v4.8H4.413z" mask="url(#l)" opacity=".3"/>
            <path fill="#E1F5FE" d="M7.629 11.895l10.927-2.263L28.573 12.8V-4.421H3.037z" mask="url(#l)"/>
            <path fill="#0288D1" d="M16.5 0l8.854 42.8 16.902.4-.805-43.6-16.097-4z" mask="url(#l)"/>
            <path fill="#81D4FA" d="M16.5 0l2.012 9.6 7.647 2.8-1.61-8-6.037-6.8z" mask="url(#l)"/>
        </g>
        <g transform="translate(24 321)">
            <path fill="#0D47A1" d="M18.11 42.4l2.889-1.276c.405-.179.495-.062.198.266L18.11 44.8v-2.4z"/>
            <path fill="#01579B" d="M14.488 29.6h4.024V52h-4.024z"/>
            <mask id="n" fill="#fff">
                <use xlink:href="#m"/>
            </mask>
            <use fill="#03A9F4" xlink:href="#m"/>
            <path fill="url(#i)" d="M4.427 26.8h22.939v4.8H4.413zM4.427 15.6h22.939v4.8H4.413z" mask="url(#n)" opacity=".3"/>
            <path fill="#E1F5FE" d="M7.629 11.895l10.927-2.263L28.573 12.8V-4.421H3.037z" mask="url(#n)"/>
            <path fill="#0288D1" d="M16.5 0l8.854 42.8 16.902.4-.805-43.6-16.097-4z" mask="url(#n)"/>
            <path fill="#81D4FA" d="M16.5 0l2.012 9.6 7.647 2.8-1.61-8-6.037-6.8z" mask="url(#n)"/>
        </g>
    </g>
</svg>
