<svg xmlns="http://www.w3.org/2000/svg" xmlns:xlink="http://www.w3.org/1999/xlink" width="238" height="440" viewBox="0 0 238 440">
    <defs>
        <path id="a" d="M0 0h238v440H0z"/>
        <linearGradient id="b" x1="50%" x2="50%" y1="0%" y2="100%">
            <stop offset="0%" stop-color="#FFF" stop-opacity=".1"/>
            <stop offset="100%" stop-color="#FFF" stop-opacity=".9"/>
        </linearGradient>
        <linearGradient id="d" x1="50%" x2="50%" y1="0%" y2="100%">
            <stop offset="0%" stop-color="#5DB48D"/>
            <stop offset="100%" stop-color="#5DB48D" stop-opacity="0"/>
        </linearGradient>
    </defs>
    <g fill="none" fill-rule="evenodd">
        <mask id="c" fill="#fff">
            <use xlink:href="#a"/>
        </mask>
        <use fill="#D1E3DB" xlink:href="#a"/>
        <circle cx="119.5" cy="106.5" r="45.5" fill="url(#b)" mask="url(#c)"/>
        <path fill="#54A07E" d="M171.24 200.303s-9.54 145.507 0 263.428h10.173s-10.174-94.97-6.597-255.005c0-54.748-3.577-8.423-3.577-8.423z" mask="url(#c)" opacity=".2" transform="matrix(-1 0 0 1 348.413 0)"/>
        <path fill="#54A07E" d="M180.24 244.303s-9.54 145.507 0 263.428h10.173s-10.174-94.97-6.597-255.005c0-54.748-3.577-8.423-3.577-8.423z" mask="url(#c)" opacity=".2" transform="scale(-1 1) rotate(-2 0 10862.745)"/>
        <path fill="#54A07E" d="M145.24 210.303s-9.54 145.507 0 263.428h10.173s-10.174-94.97-6.597-255.005c0-54.748-3.577-8.423-3.577-8.423z" mask="url(#c)" opacity=".1" transform="matrix(-1 0 0 1 296.413 0)"/>
        <path fill="#54A07E" d="M131.363 275.303s-9.539 145.507 0 263.428h10.173s-10.173-94.97-6.596-255.005c0-54.748-3.577-8.423-3.577-8.423z" mask="url(#c)" opacity=".1" transform="scale(-1 1) rotate(-2 0 8093.623)"/>
        <path fill="#54A07E" d="M161.151 245.47s-9.539 145.506 0 263.426h10.173s-10.173-94.969-6.596-255.004c0-54.749-3.577-8.423-3.577-8.423z" mask="url(#c)" opacity=".1" transform="scale(-1 1) rotate(-2 0 9770.344)"/>
        <path fill="#5DB48D" d="M188.033 116s-11.324 207.73 0 347.73h12.078S188.033 316 192.28 126c0-65-4.247-10-4.247-10z" mask="url(#c)" transform="matrix(-1 0 0 1 383.111 0)"/>
        <path fill="#5DB48D" d="M153.033 156.73s-11.324 167 0 307h12.078s-18.448-105-7.831-297c0-65-4.247-10-4.247-10z" mask="url(#c)" transform="matrix(-1 0 0 1 313.111 0)"/>
        <g mask="url(#c)">
            <path fill="#A8D7C2" d="M128.067 156.955s20.236-10.604 33.744-24.917c0 0-8.453-10.452-33.744 24.917z"/>
            <path fill="#76C2A0" d="M142.054 157.025s9.47-11.148 14.055-22.884c0 0-7.524-4.177-14.055 22.884zM125.236 141.416s14.46-2.2 25.62-8.05c0 0-2.938-8.088-25.62 8.05zM178.07 154.749s-13.896-10.723-22.207-23.356c0 0 7.79-6.78 22.208 23.356z"/>
            <path fill="#54A07E" d="M164.427 171.199s-7.707-19.722-8.452-37.948c0 0 12.267-2.17 8.452 37.948z"/>
        </g>
        <g mask="url(#c)">
            <path fill="#A8D7C2" d="M141 108.555s22.643-3.043 40.231-11.874c0 0-4.368-12.712-40.231 11.874z"/>
            <path fill="#5DB48D" d="M147.308 121.578s28.331-9.017 48.878-24.31c0 0-8.471-15.304-48.878 24.31z"/>
            <path fill="#76C2A0" d="M236.192 115.515s-26.109-7.316-45.321-20.6c0 0 7.233-14.218 45.32 20.6z"/>
            <path fill="#54A07E" d="M212.153 127.108s-14.264-15.65-21.49-32.398c0 0 10.674-6.424 21.49 32.398z"/>
            <path fill="#76C2A0" d="M176.054 117.025s9.47-11.148 14.055-22.884c0 0-7.524-4.177-14.055 22.884z"/>
        </g>
        <path fill="#5DB48D" stroke="#5DB48D" stroke-width=".5" d="M175.152 231.227s-36.54-26.703-116.649-26.703c0 0 67.46-1.405 116.649 28.108v-1.405z" mask="url(#c)" transform="rotate(29 116.828 218.573)"/>
        <path fill="#76C2A0" d="M66.528 211.321s20.767-8.619 31.304-17.048c0 0-10.757-4.552-31.304 17.048z" mask="url(#c)" transform="rotate(-30 82.18 202.597)"/>
        <path fill="#54A07E" d="M73.223 217.375s24.002-9.961 36.18-19.704c0 0-12.433-5.26-36.18 19.704z" mask="url(#c)" transform="rotate(-60 91.313 207.292)"/>
        <path fill="#54A07E" d="M94.472 200.874s24.002-9.962 36.18-19.704c0 0-12.433-5.261-36.18 19.704z" mask="url(#c)" transform="scale(-1 1) rotate(36 0 -155.64)"/>
        <g mask="url(#c)">
            <path fill="#5DB48D" stroke="#5DB48D" stroke-width=".5" d="M195.435 295.188s-30.295-26.483-101.247-32.69c0 0 59.858 3.983 101.138 33.934l.11-1.244z"/>
            <path fill="#76C2A0" d="M47.743 285.205s28.765-7.522 50.084-21.718c0 0-7.659-15.727-50.084 21.718z"/>
            <path fill="#54A07E" d="M68.332 303.668s22.891-18.973 36.213-40.848c0 0-13.588-11.018-36.213 40.848z"/>
            <path fill="#76C2A0" d="M114.704 305.512s-14.463-27.25-12.57-39.73c0 0 12.895-3.464 12.57 39.73z"/>
        </g>
        <path fill="#76C2A0" d="M74.92 179.39l1.52 4.56s-8.362-2.87-34.207-3.8c0 0 14.443-3.8 32.687-.76z" mask="url(#c)" transform="rotate(-11 59.337 181.08)"/>
        <path fill="#76C2A0" d="M77.85 163.32l.807 2.423s-6.036-.98-14.667-1.305c0 0 5.131-1.893 13.86-1.118z" mask="url(#c)" opacity=".7" transform="rotate(89 71.323 164.438)"/>
        <path fill="#54A07E" d="M78.264 168.273l1.52 4.561s-11.362-1.844-27.61-2.456c0 0 9.66-3.563 26.09-2.105z" mask="url(#c)" transform="rotate(39 65.979 170.378)"/>
        <path fill="url(#d)" d="M-30 391s103-54 167 0c0 3-167 0-167 0z" mask="url(#c)" opacity=".3"/>
        <path fill="url(#d)" d="M55 409s103-54 167 0c0 3-167 0-167 0z" mask="url(#c)" opacity=".3"/>
        <path fill="url(#d)" d="M155 339s60-54 124 0c0 3-124 0-124 0z" mask="url(#c)" opacity=".2"/>
    </g>
</svg>
